<?xml version="1.0" encoding="UTF-8"?><svg id="Laag_1" xmlns="http://www.w3.org/2000/svg" viewBox="0 0 75.26 26.08"><defs><style>.cls-1{fill:none;stroke:#e95a46;stroke-miterlimit:10;stroke-width:3.93px;}.cls-2{fill:#e95a46;}</style></defs><rect class="cls-1" x="1.96" y="1.96" width="71.34" height="22.15"/><g><path class="cls-2" d="M21.8,13.27c0,1-.18,1.87-.53,2.62-.35,.75-.86,1.33-1.51,1.74-.66,.41-1.41,.61-2.26,.61s-1.59-.2-2.24-.6c-.66-.4-1.17-.98-1.53-1.73-.36-.75-.54-1.61-.55-2.58v-.5c0-1,.18-1.87,.54-2.63s.87-1.34,1.52-1.74c.66-.41,1.4-.61,2.25-.61s1.59,.2,2.25,.61,1.16,.99,1.52,1.74,.54,1.63,.54,2.62v.45Zm-2.11-.46c0-1.06-.19-1.87-.57-2.42-.38-.55-.92-.83-1.63-.83s-1.24,.27-1.62,.82c-.38,.54-.57,1.34-.58,2.39v.49c0,1.03,.19,1.83,.57,2.4s.93,.85,1.64,.85,1.24-.27,1.61-.82c.38-.55,.57-1.35,.57-2.4v-.49Z"/><path class="cls-2" d="M32.26,18.1h-2.08l-4.06-6.66v6.66h-2.08V7.98h2.08l4.07,6.67V7.98h2.08v10.12Z"/><path class="cls-2" d="M44.76,16.02h-3.66l-.7,2.08h-2.22l3.77-10.12h1.93l3.79,10.12h-2.22l-.7-2.08Zm-3.09-1.69h2.53l-1.27-3.79-1.26,3.79Z"/><path class="cls-2" d="M51.55,18.1h-2.08V7.98h2.08v10.12Z"/><path class="cls-2" d="M57.94,14.4h-1.66v3.7h-2.08V7.98h3.76c1.2,0,2.12,.27,2.77,.8,.65,.53,.97,1.29,.97,2.26,0,.69-.15,1.27-.45,1.73-.3,.46-.75,.83-1.36,1.1l2.19,4.14v.1h-2.24l-1.9-3.7Zm-1.66-1.69h1.68c.52,0,.93-.13,1.22-.4,.29-.27,.43-.63,.43-1.1s-.14-.85-.41-1.13c-.27-.27-.69-.41-1.25-.41h-1.67v3.04Z"/></g></svg>