<?xml version="1.0" encoding="UTF-8"?><svg id="Laag_1" xmlns="http://www.w3.org/2000/svg" viewBox="0 0 45.82 50.37"><defs><style>.cls-1{fill:#e95a46;}</style></defs><path class="cls-1" d="M36.64,9.31l1.64-9.31H12.6c-2.45,0-4.78,1.98-5.21,4.43L.07,45.95c-.43,2.45,1.2,4.43,3.65,4.43h30.43c2.45,0,4.78-1.98,5.21-4.43l6.46-36.64h-9.17Zm-1.61,34.77H5.05l.6-3.42h29.98l-.6,3.42Zm1.13-6.43H6.19l.6-3.42h29.98l-.6,3.42Zm1.13-6.43H7.32l.6-3.42h29.98l-.6,3.42Zm1.13-6.43H8.46l.6-3.42h29.98l-.6,3.42Zm1.13-6.43H9.59l.6-3.42h29.98l-.6,3.42Z"/><polygon class="cls-1" points="40.46 1.64 39.57 6.71 44.63 6.71 40.46 1.64"/></svg>