<?xml version="1.0" encoding="UTF-8"?><svg id="Laag_1" xmlns="http://www.w3.org/2000/svg" viewBox="0 0 56.81 56.83"><defs><style>.cls-1{fill:#e95a46;}</style></defs><path class="cls-1" d="M56.81,29.15C57.2,12.78,44.08,.02,28.45,0,12.56-.02-.08,12.92,0,28.36c-.14,15.03,11.85,28.18,27.85,28.46,16.1,.29,28.59-12.36,28.96-27.67Zm-28.17,21.15c-12.54,.19-22.36-9.86-22.35-22.22,.01-11.98,9.76-21.63,21.77-21.82,11.52-.18,22.26,9.14,22.27,22.03,.03,12.04-9.74,21.83-21.69,22.01Z"/><path class="cls-1" d="M42.01,18.63c-.98,.92-1.88,1.77-2.82,2.64-1.09-1.16-2.09-2.22-3.14-3.33,.88-.97,1.71-1.89,2.58-2.85-3.48-2.67-7.28-3.8-11.59-3.47,.26,1.26,.51,2.43,.77,3.7-1.54,.35-3.01,.68-4.59,1.03-.31-1.25-.6-2.42-.91-3.68-4.07,1.64-7.12,4.22-9.03,8.22,1.21,.43,2.36,.84,3.61,1.28-.51,1.52-.99,2.97-1.49,4.45-1.28-.41-2.41-.78-3.67-1.18-.7,4.58,.25,8.67,2.79,12.49,.91-.8,1.75-1.54,2.62-2.31,1.23,1.07,2.37,2.07,3.55,3.1-.94,.99-1.79,1.88-2.68,2.81,3.42,2.57,7.19,3.69,11.51,3.47-.26-1.31-.49-2.5-.73-3.74,1.58-.35,3.04-.68,4.55-1.02,.32,1.32,.61,2.5,.9,3.68,3.78-1.32,7.92-5.12,9.02-8.27-.98-.34-1.97-.64-2.93-1.03-.22-.09-.48-.54-.43-.74,.36-1.27,.8-2.52,1.24-3.88,1.23,.37,2.4,.73,3.69,1.12,.68-4.6-.25-8.68-2.83-12.49Z"/></svg>