<?xml version="1.0" encoding="UTF-8"?><svg id="Laag_1" xmlns="http://www.w3.org/2000/svg" viewBox="0 0 36.79 57.04"><defs><style>.cls-1{fill:#e95a46;}</style></defs><path class="cls-1" d="M21.38,38.11c5.33-1.48,8.8-5.97,8.86-11.52,.03-2.47,0-4.94,0-7.41,0-2.49,.03-4.98,0-7.48C30.14,5.21,24.72-.09,18.32,0,11.83,.09,6.66,5.22,6.56,11.78c-.07,5.05-.08,10.09,0,15.14,.12,7.63,7.55,13.2,14.81,11.19Z"/><path class="cls-1" d="M36.79,26.76h-3.93c-.08,.93-.11,1.88-.31,2.79-1.46,6.7-7.14,11.44-14,11.46-5.97,.02-10.34-2.81-13.13-8.07-1.02-1.92-1.44-4.01-1.52-6.18H0c.04,3.08,.75,6.01,2.28,8.68,3.02,5.27,7.54,8.43,13.57,9.34,.46,.07,.58,.25,.58,.69-.02,2.34-.02,4.69,0,7.03,0,.52-.18,.64-.66,.63-1.33-.03-2.66-.03-3.99,0-1.16,.02-1.99,.87-1.98,1.96,.01,1.13,.84,1.94,2.05,1.95,2.17,.02,4.35,0,6.52,0,2.13,0,4.26,0,6.4,0,1.31,0,2.17-.79,2.18-1.95,0-1.17-.86-1.96-2.16-1.97-1.2,0-2.41,0-3.61,0-1.14,0-.73,0-.88-2.02-.1-1.36-.12-2.73-.01-4.09,.19-2.38-.31-2.07,.93-2.25,2.79-.41,5.36-1.42,7.63-3.06,5.07-3.66,7.72-8.64,7.92-14.93Z"/></svg>