<svg id="Laag_1" data-name="Laag 1" xmlns="http://www.w3.org/2000/svg" viewBox="0 0 980.41 24.22"><defs><style>.cls-1{fill:none;stroke:#fff;stroke-width:7.81px;}</style></defs><line class="cls-1" x1="3.91" x2="3.91" y2="24.22"/><line class="cls-1" x1="37.61" x2="37.61" y2="15.33"/><line class="cls-1" x1="71.32" x2="71.32" y2="24.22"/><line class="cls-1" x1="105.03" x2="105.03" y2="15.33"/><line class="cls-1" x1="137.91" x2="137.91" y2="24.22"/><line class="cls-1" x1="171.62" x2="171.62" y2="15.33"/><line class="cls-1" x1="205.32" x2="205.32" y2="24.22"/><line class="cls-1" x1="239.03" x2="239.03" y2="15.33"/><line class="cls-1" x1="272.73" x2="272.73" y2="24.22"/><line class="cls-1" x1="305.62" x2="305.62" y2="15.33"/><line class="cls-1" x1="339.32" x2="339.32" y2="24.22"/><line class="cls-1" x1="373.03" x2="373.03" y2="15.33"/><line class="cls-1" x1="406.74" x2="406.74" y2="24.22"/><line class="cls-1" x1="406.35" x2="406.35" y2="24.22"/><line class="cls-1" x1="440.06" x2="440.06" y2="15.33"/><line class="cls-1" x1="473.76" x2="473.76" y2="24.22"/><line class="cls-1" x1="507.47" x2="507.47" y2="15.33"/><line class="cls-1" x1="540.35" x2="540.35" y2="24.22"/><line class="cls-1" x1="574.06" x2="574.06" y2="15.33"/><line class="cls-1" x1="607.77" x2="607.77" y2="24.22"/><line class="cls-1" x1="641.47" x2="641.47" y2="15.33"/><line class="cls-1" x1="675.18" x2="675.18" y2="24.22"/><line class="cls-1" x1="708.06" x2="708.06" y2="15.33"/><line class="cls-1" x1="741.77" x2="741.77" y2="24.22"/><line class="cls-1" x1="775.47" x2="775.47" y2="15.33"/><line class="cls-1" x1="809.18" x2="809.18" y2="24.22"/><line class="cls-1" x1="808.8" x2="808.8" y2="24.22"/><line class="cls-1" x1="842.5" x2="842.5" y2="15.33"/><line class="cls-1" x1="876.21" x2="876.21" y2="24.22"/><line class="cls-1" x1="909.92" x2="909.92" y2="15.33"/><line class="cls-1" x1="942.8" x2="942.8" y2="24.22"/><line class="cls-1" x1="976.51" x2="976.51" y2="15.33"/></svg>